<svg xmlns="http://www.w3.org/2000/svg" width="131" height="104.5" viewBox="0 0 131 104.5">
  <defs>
    <style>
      .cls-1 {
        fill: #fff;
        fill-rule: evenodd;
      }
    </style>
  </defs>
  <path id="Forma_1" data-name="Forma 1" class="cls-1" d="M65.5,21.336L18.654,59.955a1.108,1.108,0,0,1-.041.244,1.118,1.118,0,0,0-.041.244V99.549a5.291,5.291,0,0,0,5.214,5.216H55.071V73.478H75.93v31.287h31.284a5.292,5.292,0,0,0,5.216-5.215V60.443a1.148,1.148,0,0,0-.082-0.488Zm64.77,29.82L112.428,36.328V3.087A2.511,2.511,0,0,0,109.821.48H94.178a2.508,2.508,0,0,0-2.607,2.607V18.974L71.692,2.353a10.107,10.107,0,0,0-12.382,0l-58.58,48.8a2.366,2.366,0,0,0-.9,1.751A2.64,2.64,0,0,0,.4,54.823l5.051,6.028a2.781,2.781,0,0,0,1.711.9,3.021,3.021,0,0,0,1.956-.57L65.5,14.167l56.379,47.011a2.513,2.513,0,0,0,1.711.569h0.245a2.786,2.786,0,0,0,1.711-.9l5.052-6.029a2.633,2.633,0,0,0,.568-1.916A2.365,2.365,0,0,0,130.27,51.156Z" transform="translate(0 -0.25)"/>
</svg>
